<svg xmlns="http://www.w3.org/2000/svg" viewBox="0 0 600 400">
  <defs>
    <linearGradient id="bg" x1="0" y1="0" x2="1" y2="1">
      <stop offset="0" stop-color="#D97706"/><stop offset="1" stop-color="#B45309"/>
    </linearGradient>
    <pattern id="dots" width="30" height="30" patternUnits="userSpaceOnUse">
      <circle cx="15" cy="15" r="1.5" fill="#ffffff" opacity=".2"/>
    </pattern>
  </defs>
  <rect width="600" height="400" fill="url(#bg)"/>
  <rect width="600" height="400" fill="url(#dots)"/>
  
  <g transform="translate(300 200)" fill="#FEF3C7">
    <g transform="translate(-60 0)">
      <rect x="-2" y="-80" width="4" height="140" fill="#92400E"/>
      <ellipse cx="0" cy="-70" rx="8" ry="14"/>
      <ellipse cx="-12" cy="-55" rx="6" ry="11"/>
      <ellipse cx="12" cy="-55" rx="6" ry="11"/>
      <ellipse cx="-14" cy="-35" rx="6" ry="11"/>
      <ellipse cx="14" cy="-35" rx="6" ry="11"/>
    </g>
    <g>
      <rect x="-2" y="-90" width="4" height="150" fill="#92400E"/>
      <ellipse cx="0" cy="-80" rx="9" ry="16"/>
      <ellipse cx="-13" cy="-63" rx="7" ry="12"/>
      <ellipse cx="13" cy="-63" rx="7" ry="12"/>
      <ellipse cx="-15" cy="-42" rx="7" ry="12"/>
      <ellipse cx="15" cy="-42" rx="7" ry="12"/>
      <ellipse cx="-17" cy="-20" rx="7" ry="12"/>
      <ellipse cx="17" cy="-20" rx="7" ry="12"/>
    </g>
    <g transform="translate(60 0)">
      <rect x="-2" y="-80" width="4" height="140" fill="#92400E"/>
      <ellipse cx="0" cy="-70" rx="8" ry="14"/>
      <ellipse cx="-12" cy="-55" rx="6" ry="11"/>
      <ellipse cx="12" cy="-55" rx="6" ry="11"/>
      <ellipse cx="-14" cy="-35" rx="6" ry="11"/>
      <ellipse cx="14" cy="-35" rx="6" ry="11"/>
    </g>
  </g>
</svg>
