<svg xmlns="http://www.w3.org/2000/svg" viewBox="0 0 600 400">
  <defs>
    <linearGradient id="bg" x1="0" y1="0" x2="1" y2="1">
      <stop offset="0" stop-color="#3b7730"/><stop offset="1" stop-color="#233f1f"/>
    </linearGradient>
    <pattern id="dots" width="30" height="30" patternUnits="userSpaceOnUse">
      <circle cx="15" cy="15" r="1.5" fill="#ffffff" opacity=".2"/>
    </pattern>
  </defs>
  <rect width="600" height="400" fill="url(#bg)"/>
  <rect width="600" height="400" fill="url(#dots)"/>
  
  <g transform="translate(300 210)">
    <path d="M-70 40 Q-90 0 -70 -20 Q-50 -10 -60 20 Q-60 35 -70 40Z" fill="#9dcd8f"/>
    <rect x="-72" y="30" width="4" height="40" fill="#5B3D1F"/>
    <path d="M0 40 Q-25 -20 0 -50 Q25 -20 0 40Z" fill="#70b05d"/>
    <path d="M0 -50 Q-10 -80 0 -100 Q10 -80 0 -50Z" fill="#9dcd8f"/>
    <rect x="-2" y="40" width="4" height="40" fill="#5B3D1F"/>
    <path d="M70 40 Q50 -10 70 -25 Q90 -10 70 40Z" fill="#70b05d"/>
    <rect x="68" y="30" width="4" height="45" fill="#5B3D1F"/>
    <!-- seeds at bottom -->
    <g transform="translate(0 110)">
      <ellipse cx="-40" cy="0" rx="10" ry="7" fill="#92400E"/>
      <ellipse cx="-20" cy="5" rx="10" ry="7" fill="#78350F"/>
      <ellipse cx="0" cy="0" rx="10" ry="7" fill="#92400E"/>
      <ellipse cx="20" cy="5" rx="10" ry="7" fill="#78350F"/>
      <ellipse cx="40" cy="0" rx="10" ry="7" fill="#92400E"/>
    </g>
  </g>
</svg>
