<svg xmlns="http://www.w3.org/2000/svg" viewBox="0 0 400 400">
  <defs><linearGradient id="g3" x1="0" y1="0" x2="1" y2="1"><stop offset="0" stop-color="#F87171"/><stop offset="1" stop-color="#991B1B"/></linearGradient></defs>
  <rect width="400" height="400" fill="url(#g3)"/>
  <g transform="translate(200 210)">
    <ellipse cy="90" rx="130" ry="20" fill="#000" opacity=".2"/>
    <!-- basket -->
    <path d="M-120 -30 L-100 80 L100 80 L120 -30 Z" fill="#92400E"/>
    <rect x="-125" y="-35" width="250" height="12" rx="6" fill="#78350F"/>
    <g stroke="#5B3D1F" stroke-width="2" opacity=".5">
      <line x1="-110" y1="-20" x2="-95" y2="70"/>
      <line x1="-80" y1="-25" x2="-70" y2="75"/>
      <line x1="-50" y1="-28" x2="-45" y2="78"/>
      <line x1="0" y1="-30" x2="0" y2="80"/>
      <line x1="50" y1="-28" x2="45" y2="78"/>
      <line x1="80" y1="-25" x2="70" y2="75"/>
      <line x1="110" y1="-20" x2="95" y2="70"/>
    </g>
    <!-- apples -->
    <circle cx="-60" cy="-55" r="30" fill="#DC2626"/>
    <path d="M-60 -85 L-60 -92 M-55 -88 Q-45 -95 -40 -85" stroke="#166534" stroke-width="3" fill="none"/>
    <circle cx="-20" cy="-65" r="32" fill="#EF4444"/>
    <path d="M-20 -97 L-20 -105 M-15 -100 Q-5 -105 0 -97" stroke="#166534" stroke-width="3" fill="none"/>
    <circle cx="30" cy="-58" r="34" fill="#DC2626"/>
    <path d="M30 -92 L30 -100 M35 -95 Q45 -100 50 -90" stroke="#166534" stroke-width="3" fill="none"/>
    <circle cx="70" cy="-50" r="28" fill="#F87171"/>
    <path d="M70 -78 L70 -85" stroke="#166534" stroke-width="3" fill="none"/>
    <circle cx="-45" cy="-25" r="25" fill="#DC2626" opacity=".9"/>
    <circle cx="5" cy="-20" r="28" fill="#B91C1C"/>
    <circle cx="55" cy="-22" r="26" fill="#EF4444"/>
  </g>
</svg>
